<svg width="162" height="46" viewBox="0 0 162 46" fill="none" xmlns="http://www.w3.org/2000/svg">
<g clip-path="url(#clip0_48419_4363)">
<path d="M41.6769 0.5H21.0115C19.1423 0.5 17.6538 1.98846 17.6538 3.82308V20.9231H41.6423C43.4769 20.9231 44.9654 19.4346 44.9654 17.6V3.82308C45 1.98846 43.5115 0.5 41.6769 0.5Z" fill="#92C83E"/>
<path d="M24.9577 12.3388C25.8563 12.3388 26.5847 11.6104 26.5847 10.7119C26.5847 9.81336 25.8563 9.08496 24.9577 9.08496C24.0592 9.08496 23.3308 9.81336 23.3308 10.7119C23.3308 11.6104 24.0592 12.3388 24.9577 12.3388Z" fill="white"/>
<path d="M31.3269 12.3388C32.2254 12.3388 32.9538 11.6104 32.9538 10.7119C32.9538 9.81336 32.2254 9.08496 31.3269 9.08496C30.4283 9.08496 29.7 9.81336 29.7 10.7119C29.7 11.6104 30.4283 12.3388 31.3269 12.3388Z" fill="white"/>
<path d="M37.6961 12.3388C38.5947 12.3388 39.3231 11.6104 39.3231 10.7119C39.3231 9.81336 38.5947 9.08496 37.6961 9.08496C36.7976 9.08496 36.0692 9.81336 36.0692 10.7119C36.0692 11.6104 36.7976 12.3388 37.6961 12.3388Z" fill="white"/>
<path d="M3.42696 24.8696C1.59234 24.8696 0.103882 26.358 0.103882 28.1927V42.1427C0.103882 43.9773 1.59234 45.4657 3.42696 45.4657H24.0923C25.927 45.4657 27.4154 43.9773 27.4154 42.1427V24.835H3.42696V24.8696Z" fill="#FBB03B"/>
<path d="M7.37302 36.8115C8.27154 36.8115 8.99994 36.0831 8.99994 35.1845C8.99994 34.286 8.27154 33.5576 7.37302 33.5576C6.47449 33.5576 5.74609 34.286 5.74609 35.1845C5.74609 36.0831 6.47449 36.8115 7.37302 36.8115Z" fill="white"/>
<path d="M13.7423 36.8115C14.6408 36.8115 15.3692 36.0831 15.3692 35.1845C15.3692 34.286 14.6408 33.5576 13.7423 33.5576C12.8438 33.5576 12.1154 34.286 12.1154 35.1845C12.1154 36.0831 12.8438 36.8115 13.7423 36.8115Z" fill="white"/>
<path d="M20.1115 36.8115C21.0101 36.8115 21.7385 36.0831 21.7385 35.1845C21.7385 34.286 21.0101 33.5576 20.1115 33.5576C19.213 33.5576 18.4846 34.286 18.4846 35.1845C18.4846 36.0831 19.213 36.8115 20.1115 36.8115Z" fill="white"/>
<path d="M13.7423 14.0691V20.9576H6.88846C3.08077 20.9576 0 17.8768 0 14.0691C0 10.2614 3.08077 7.18066 6.88846 7.18066C10.6961 7.18066 13.7423 10.2961 13.7423 14.0691Z" fill="#ED1E79"/>
<path d="M31.2577 31.7576V24.8691H38.1462C41.9538 24.8691 45.0346 27.9499 45.0346 31.7576C45.0346 35.5653 41.9538 38.6461 38.1462 38.6461C34.3385 38.6461 31.2577 35.5307 31.2577 31.7576Z" fill="#3FA9F5"/>
</g>
<g clip-path="url(#clip1_48419_4363)">
<path d="M61.8761 12.6807H57.5267C57.0344 12.6807 56.6543 12.8115 56.3926 13.0732C56.1309 13.3349 56 13.7151 56 14.2073V26.969C56 27.4612 56.1309 27.8413 56.3926 28.1031C56.6543 28.3648 57.0344 28.4956 57.5267 28.4956H61.8761C63.2096 28.4956 64.3873 28.3212 65.4092 27.966C66.4311 27.617 67.3035 27.0998 68.0139 26.4268C68.7243 25.7539 69.2601 24.9251 69.6278 23.9468C69.9954 22.9685 70.1761 21.8406 70.1761 20.5695C70.1761 18.0271 69.4533 16.0767 68.0139 14.7121C66.5682 13.3599 64.5244 12.6807 61.8761 12.6807ZM66.8362 23.0121C66.6119 23.71 66.2691 24.2833 65.8143 24.7382C65.3594 25.1931 64.7923 25.5358 64.1069 25.7726C63.4277 26.0031 62.6238 26.1215 61.6954 26.1215H58.8664V15.0548H61.6954C63.5211 15.0548 64.8858 15.5097 65.8018 16.4257C66.7116 17.3354 67.1727 18.7188 67.1727 20.5757C67.1727 21.5041 67.0605 22.3142 66.8362 23.0121Z" fill="black"/>
<path d="M79.7911 13.7089C79.5979 13.2727 79.3611 12.9673 79.0869 12.7804C78.8128 12.5935 78.5012 12.5 78.1585 12.5C77.8158 12.5 77.4793 12.5935 77.2051 12.7804C76.9309 12.9673 76.6941 13.2789 76.501 13.7089L70.5812 26.8319C70.4317 27.1746 70.3818 27.4862 70.4255 27.7604C70.4691 28.0346 70.5999 28.2589 70.818 28.4209C71.0361 28.5829 71.3228 28.6701 71.6842 28.6701C72.0705 28.6701 72.3696 28.5704 72.5815 28.3773C72.7934 28.1841 72.9928 27.8663 73.1859 27.4364L74.2889 24.8317H82.0032L83.1248 27.4364C83.3055 27.8539 83.5111 28.1654 83.7417 28.3648C83.9723 28.5642 84.2963 28.6701 84.72 28.6701C85.0627 28.6701 85.3431 28.5891 85.5488 28.4334C85.7606 28.2776 85.8853 28.0533 85.9289 27.7728C85.9725 27.4862 85.9164 27.1746 85.7482 26.8319L79.7911 13.7089ZM78.1086 15.7963H78.1522L81.0124 22.551H75.2672L78.1086 15.7963Z" fill="black"/>
<path d="M97.2572 20.333C97.9178 20.0838 98.4599 19.7099 98.8836 19.2052C99.4382 18.5447 99.7124 17.7408 99.7124 16.7812C99.7124 15.9275 99.5067 15.1985 99.0955 14.5816C98.6842 13.9709 98.0922 13.4973 97.3133 13.1671C96.5344 12.8368 95.5935 12.6748 94.4843 12.6748H89.1005C88.6082 12.6748 88.2281 12.8057 87.9664 13.0674C87.7047 13.3291 87.5739 13.7092 87.5739 14.2015V26.9631C87.5739 27.4554 87.7047 27.8355 87.9664 28.0972C88.2281 28.3589 88.6082 28.4898 89.1005 28.4898H94.7336C96.4223 28.4898 97.7433 28.1034 98.6904 27.337C99.6376 26.5643 100.117 25.4801 100.117 24.0718C100.117 22.9938 99.8121 22.1214 99.1952 21.4484C98.7091 20.9125 98.0549 20.5449 97.2572 20.333ZM90.3343 14.8557H93.9921C94.9766 14.8557 95.7181 15.0489 96.2042 15.429C96.6902 15.8091 96.9332 16.3762 96.9332 17.1239C96.9332 17.8717 96.6902 18.4387 96.2042 18.8188C95.7181 19.1989 94.9828 19.3921 93.9921 19.3921H90.3343V14.8557ZM96.6154 25.7231C96.1356 26.1219 95.3879 26.3151 94.3722 26.3151H90.3343V21.5606H94.3722C95.3879 21.5606 96.1356 21.7538 96.6154 22.1463C97.0952 22.5327 97.332 23.1309 97.332 23.9409C97.332 24.751 97.0952 25.3305 96.6154 25.7231Z" fill="black"/>
<path d="M111.402 17.3477C110.953 17.3477 110.611 17.4661 110.368 17.6966C110.131 17.9272 110.006 18.2823 110.006 18.7622V23.6973C110.006 24.551 109.77 25.2364 109.29 25.7474C108.81 26.2646 108.199 26.5201 107.452 26.5201C106.766 26.5201 106.261 26.3331 105.95 25.9593C105.638 25.5854 105.476 25.0121 105.476 24.2332V18.7622C105.476 18.2823 105.352 17.9272 105.109 17.6966C104.859 17.4661 104.517 17.3477 104.068 17.3477C103.619 17.3477 103.277 17.4661 103.034 17.6966C102.797 17.9272 102.672 18.2823 102.672 18.7622V24.1896C102.672 25.1928 102.815 26.0278 103.108 26.7008C103.401 27.3738 103.844 27.8785 104.442 28.215C105.04 28.5515 105.794 28.7197 106.71 28.7197C107.626 28.7197 108.33 28.5016 108.966 28.0717C109.421 27.7601 109.788 27.3551 110.075 26.8566V27.2429C110.075 27.704 110.193 28.0592 110.436 28.3085C110.673 28.5577 111.01 28.6761 111.446 28.6761C112.356 28.6761 112.817 28.1963 112.817 27.2429V18.7622C112.817 18.2823 112.692 17.9272 112.449 17.6966C112.2 17.4661 111.857 17.3477 111.408 17.3477H111.402Z" fill="black"/>
<path d="M124.588 17.996C123.871 17.5349 123.024 17.2981 122.052 17.2981C121.142 17.2981 120.338 17.5224 119.653 17.9711C119.16 18.2889 118.793 18.6814 118.531 19.1488V13.9145C118.531 13.4534 118.406 13.0982 118.163 12.8614C117.92 12.6246 117.571 12.5 117.123 12.5C116.674 12.5 116.331 12.6184 116.088 12.8614C115.851 13.0982 115.727 13.4534 115.727 13.9145V27.237C115.727 27.6981 115.845 28.0533 116.088 28.3025C116.325 28.5518 116.674 28.6701 117.123 28.6701C117.571 28.6701 117.895 28.5455 118.132 28.3025C118.369 28.0533 118.493 27.6981 118.493 27.237V26.7696C118.749 27.2681 119.123 27.6856 119.628 28.0221C120.325 28.4832 121.136 28.72 122.064 28.72C122.992 28.72 123.865 28.4894 124.588 28.0221C125.311 27.561 125.878 26.8942 126.283 26.0343C126.688 25.1744 126.887 24.1587 126.887 22.9935C126.887 21.8282 126.688 20.8001 126.283 19.9526C125.878 19.1051 125.317 18.4509 124.6 17.9897L124.588 17.996ZM123.703 24.9812C123.472 25.5109 123.148 25.9097 122.725 26.1839C122.301 26.458 121.821 26.5889 121.266 26.5889C120.431 26.5889 119.758 26.2836 119.247 25.6791C118.737 25.0747 118.487 24.1774 118.487 22.9997C118.487 22.2083 118.606 21.5478 118.836 21.0119C119.067 20.4823 119.391 20.0835 119.815 19.8217C120.232 19.56 120.718 19.4292 121.273 19.4292C122.108 19.4292 122.781 19.722 123.292 20.314C123.803 20.906 124.052 21.7971 124.052 22.9935C124.052 23.7848 123.933 24.4453 123.703 24.9812Z" fill="black"/>
<path d="M138.047 17.996C137.331 17.5349 136.483 17.2981 135.511 17.2981C134.601 17.2981 133.797 17.5224 133.112 17.9711C132.62 18.2889 132.252 18.6814 131.99 19.1488V13.9145C131.99 13.4534 131.866 13.0982 131.623 12.8614C131.38 12.6246 131.031 12.5 130.582 12.5C130.133 12.5 129.791 12.6184 129.548 12.8614C129.311 13.0982 129.186 13.4534 129.186 13.9145V27.237C129.186 27.6981 129.305 28.0533 129.548 28.3025C129.784 28.5518 130.133 28.6701 130.582 28.6701C131.031 28.6701 131.355 28.5455 131.592 28.3025C131.828 28.0533 131.953 27.6981 131.953 27.237V26.7696C132.208 27.2681 132.582 27.6856 133.087 28.0221C133.785 28.4832 134.595 28.72 135.523 28.72C136.452 28.72 137.324 28.4894 138.047 28.0221C138.77 27.561 139.337 26.8942 139.742 26.0343C140.147 25.1744 140.346 24.1587 140.346 22.9935C140.346 21.8282 140.147 20.8001 139.742 19.9526C139.337 19.1051 138.776 18.4509 138.06 17.9897L138.047 17.996ZM137.162 24.9812C136.932 25.5109 136.608 25.9097 136.184 26.1839C135.76 26.458 135.28 26.5889 134.726 26.5889C133.891 26.5889 133.218 26.2836 132.707 25.6791C132.196 25.0747 131.947 24.1774 131.947 22.9997C131.947 22.2083 132.065 21.5478 132.296 21.0119C132.526 20.4823 132.85 20.0835 133.274 19.8217C133.691 19.56 134.178 19.4292 134.732 19.4292C135.567 19.4292 136.24 19.722 136.751 20.314C137.262 20.906 137.511 21.7971 137.511 22.9935C137.511 23.7848 137.393 24.4453 137.162 24.9812Z" fill="black"/>
<path d="M147.787 26.3646C147.681 26.377 147.575 26.3895 147.475 26.3957C147.369 26.402 147.257 26.4082 147.139 26.4082C146.603 26.4082 146.185 26.2462 145.892 25.9159C145.599 25.5857 145.456 25.0809 145.456 24.3893V13.9145C145.456 13.4534 145.332 13.0982 145.089 12.8614C144.846 12.6246 144.497 12.5 144.048 12.5C143.599 12.5 143.257 12.6184 143.014 12.8614C142.777 13.0982 142.652 13.4534 142.652 13.9145V24.5264C142.652 25.9035 142.964 26.9441 143.593 27.6545C144.222 28.3648 145.157 28.72 146.397 28.72C146.559 28.72 146.727 28.7138 146.889 28.6951C147.051 28.6826 147.213 28.6639 147.363 28.6515C147.706 28.6078 147.955 28.477 148.104 28.2713C148.254 28.0595 148.329 27.7728 148.329 27.399C148.329 26.9628 148.291 26.6761 148.217 26.5328C148.142 26.3895 147.999 26.3334 147.793 26.3646H147.787Z" fill="black"/>
<path d="M158.666 25.7044C158.43 25.6795 158.149 25.7605 157.838 25.9412C157.401 26.178 156.947 26.3463 156.46 26.446C155.974 26.5457 155.538 26.5893 155.146 26.5893C154.024 26.5893 153.177 26.284 152.597 25.6795C152.142 25.1997 151.874 24.5205 151.781 23.6481H158.554C158.897 23.6481 159.165 23.5796 159.352 23.4363C159.539 23.2929 159.632 23.0873 159.632 22.8194C159.632 21.9657 159.514 21.1992 159.283 20.52C159.053 19.8408 158.716 19.2613 158.274 18.7815C157.831 18.3017 157.302 17.934 156.679 17.6848C156.055 17.4293 155.358 17.3047 154.579 17.3047C153.519 17.3047 152.572 17.5477 151.743 18.0337C150.915 18.5198 150.26 19.1865 149.793 20.0402C149.319 20.8939 149.089 21.8847 149.089 23.025C149.089 24.1653 149.332 25.1997 149.818 26.0534C150.304 26.9071 150.996 27.5614 151.893 28.0287C152.79 28.4898 153.862 28.7266 155.102 28.7266C155.688 28.7266 156.317 28.6456 156.996 28.4898C157.676 28.334 158.28 28.091 158.803 27.7608C159.071 27.5987 159.265 27.3993 159.377 27.175C159.489 26.9507 159.532 26.7326 159.501 26.5145C159.47 26.2964 159.383 26.1157 159.246 25.9662C159.103 25.8166 158.916 25.7294 158.673 25.7107L158.666 25.7044ZM153.089 19.6476C153.532 19.3548 154.068 19.2115 154.691 19.2115C155.258 19.2115 155.731 19.3361 156.118 19.5791C156.498 19.8284 156.791 20.1835 156.99 20.6446C157.158 21.031 157.252 21.4983 157.283 22.0342H151.781C151.837 21.6105 151.93 21.2179 152.08 20.8814C152.31 20.3518 152.647 19.9405 153.089 19.6476Z" fill="black"/>
</g>
<defs>
<clipPath id="clip0_48419_4363">
<rect width="45" height="45" fill="white" transform="translate(0 0.5)"/>
</clipPath>
<clipPath id="clip1_48419_4363">
<rect width="105.502" height="16.22" fill="white" transform="translate(56 12.5)"/>
</clipPath>
</defs>
</svg>
