<svg width="40" height="40" viewBox="0 0 40 40" fill="none" xmlns="http://www.w3.org/2000/svg">
<g clip-path="url(#clip0_392_3944)">
<rect width="40" height="40" rx="20" fill="white"/>
<path d="M40 0.000976562H0V40.0001H40V0.000976562Z" fill="#444DF2"/>
<path d="M23.532 33.256C23.2544 35.484 22.988 37.7479 22.8992 39.9999H4.22961C4.47521 39.6231 4.76641 39.2247 5.09281 38.7903C6.69521 36.6616 7.99361 34.3048 8.94321 31.8153C9.41761 30.5713 9.80561 29.2929 10.0992 27.9938C10.304 27.0922 10.9872 25.1346 10.6808 24.2458C10.856 24.7546 11.1032 25.225 11.4064 25.6594C12.3656 27.033 13.8864 28.0338 15.4672 28.6657C17.548 29.4969 19.7928 29.8177 21.9464 30.4361C22.3968 30.5657 22.8656 30.7225 23.18 31.0705C23.6904 31.6369 23.6264 32.4993 23.532 33.256Z" fill="#444DF2"/>
<path d="M23.532 33.256C23.2544 35.484 22.988 37.7479 22.8992 39.9999H4.22961C4.47521 39.6231 4.76641 39.2247 5.09281 38.7903C6.69521 36.6616 7.99361 34.3048 8.94321 31.8153C9.41761 30.5713 9.80561 29.2929 10.0992 27.9938C10.304 27.0922 10.9872 25.1346 10.6808 24.2458C10.856 24.7546 11.1032 25.225 11.4064 25.6594C12.3656 27.033 13.8864 28.0338 15.4672 28.6657C17.548 29.4969 19.7928 29.8177 21.9464 30.4361C22.3968 30.5657 22.8656 30.7225 23.18 31.0705C23.6904 31.6369 23.6264 32.4993 23.532 33.256Z" fill="#EAAA7F"/>
<path d="M8.46959 14.563C8.44399 12.8127 8.62959 11.0399 9.43839 9.46796C10.8256 6.76962 13.8688 5.09686 16.9608 4.51127C20.0536 3.92569 23.2336 4.26808 26.348 4.63607C28.2192 4.85767 31.0096 5.19526 32.0136 6.90962C33.3408 9.17357 33.4696 12.4415 33.7336 14.975C33.9976 17.5086 34.32 20.0357 34.5728 22.5709C34.7944 24.794 34.7088 27.154 33.8096 29.2675C32.7352 31.7938 30.3832 33.8482 27.5944 34.5274C23.6272 35.493 18.2096 34.2362 15.6568 31.2259C13.7824 29.0155 11.6816 26.606 10.4408 24.0124C9.16479 21.3453 8.64559 18.3918 8.49999 15.4686C8.48479 15.1678 8.47359 14.8654 8.46959 14.563Z" fill="#F7C9A4"/>
<path d="M11.3208 25.3819C10.752 25.4459 10.1936 25.3915 9.68239 25.1259C9.05679 24.8012 8.62079 24.21 8.21999 23.6308C5.97439 20.3901 4.25839 16.4917 3.90479 12.5286C3.76959 11.0095 4.12399 9.37511 5.19119 8.28473C5.46319 8.00714 5.77839 7.76634 5.99439 7.44315C6.27919 7.01756 6.36399 6.49357 6.54639 6.01438C7.14719 4.43282 8.73919 3.31604 10.2736 2.60486C17.3336 -0.667064 26.0368 -1.15825 32.6912 2.87605C33.256 3.21845 33.8144 3.76163 34.2048 4.29362C35.8448 6.52957 34.2456 9.6487 32.2016 10.8775C29.2936 12.6262 26.2664 13.3494 22.872 12.9574C20.0224 12.6278 17.288 11.6759 14.58 10.7295C15.6384 13.3174 15.5984 16.2397 14.6208 18.8429C14.1672 20.0517 14.2792 20.7108 14.2672 21.9708C14.26 22.7044 14.2888 24.4316 13.4256 24.774C12.756 25.0395 12.0304 25.3027 11.3208 25.3819Z" fill="#1B1464"/>
<path d="M12.1104 17.6548C14.2544 19.142 14.9152 22.8523 14.9696 25.2827C14.972 25.3963 14.9736 25.5147 15.024 25.6171C15.1864 25.9523 12.8976 26.0691 12.712 26.0707C11.8088 26.0795 10.9048 25.9843 10.0232 25.7859C9.0664 25.5707 8.7752 25.3187 8.2064 24.4955C7.7288 23.8043 7.3552 23.0379 7.1536 22.2211C6.8264 20.8956 6.9808 19.4236 7.7272 18.2812C7.9744 17.9028 8.2872 17.5604 8.6728 17.3253C9.7128 16.6925 11.1096 16.9605 12.1104 17.6548Z" fill="#F7C9A4"/>
<path d="M13.7664 25.4436C11.9304 26.6923 9.64241 25.9547 8.99361 25.4052C8.04881 24.6044 7.44561 23.41 7.15281 22.222C6.82561 20.8965 6.98001 19.4245 7.72641 18.2821C7.97361 17.9037 8.28641 17.5613 8.67201 17.3261C9.71201 16.6926 11.1088 16.9613 12.1104 17.6549C13.204 18.4133 13.9528 19.6493 14.1192 20.9701" fill="#F7C9A4"/>
<path d="M25.3822 20.9528C25.9708 20.9142 26.3952 20.0801 26.3302 19.0898C26.2652 18.0996 25.7354 17.3282 25.1468 17.3668C24.5582 17.4054 24.1337 18.2395 24.1987 19.2298C24.2637 20.22 24.7936 20.9914 25.3822 20.9528Z" fill="#1B1464"/>
<path d="M31.6321 19.0343C32.2207 18.9957 32.6451 18.1616 32.5801 17.1714C32.5151 16.1812 31.9853 15.4097 31.3967 15.4484C30.8081 15.487 30.3836 16.3211 30.4486 17.3113C30.5136 18.3015 31.0435 19.073 31.6321 19.0343Z" fill="#1B1464"/>
<path d="M29.2176 26.0797C28.3232 26.0797 27.4288 25.8149 26.8392 25.5949C26.6304 25.5165 26.524 25.2845 26.6024 25.0749C26.6808 24.8661 26.9136 24.7597 27.1224 24.8381C27.8008 25.0917 29.4872 25.6101 30.4864 24.9493C30.5664 24.8965 30.5912 24.8677 30.5984 24.8573C30.6008 24.8189 30.5704 24.7173 30.5568 24.6725C30.3024 23.827 29.9808 22.9862 29.6704 22.1734C29.192 20.9214 28.6976 19.6263 28.4184 18.2551C28.3736 18.0367 28.5152 17.8231 28.7336 17.7783C28.952 17.7335 29.1656 17.8751 29.2104 18.0935C29.4768 19.3999 29.9592 20.663 30.4256 21.8854C30.7416 22.7118 31.068 23.567 31.3312 24.4397C31.3776 24.5925 31.4544 24.8477 31.3656 25.1133C31.28 25.3701 31.0776 25.5269 30.9328 25.6229C30.4232 25.9589 29.8208 26.0797 29.2176 26.0797Z" fill="#1B1464"/>
<path d="M21.1032 19.0157C20.908 19.0157 20.736 18.8733 20.7048 18.6742C20.4336 16.9438 21.5056 15.1054 23.1456 14.4903C23.3544 14.4119 23.5872 14.5175 23.6656 14.7262C23.744 14.935 23.6384 15.1678 23.4296 15.2462C22.1352 15.7318 21.2888 17.183 21.5032 18.5486C21.5376 18.7686 21.3872 18.9757 21.1664 19.0101C21.1448 19.0141 21.124 19.0157 21.1032 19.0157Z" fill="#1B1464"/>
<path d="M32.7704 14.2039C32.6072 14.2039 32.4536 14.1039 32.3928 13.9423C32.3024 13.7015 32.0928 13.5007 31.8192 13.3911C31.5456 13.2815 31.2552 13.2823 31.0232 13.3927C30.8224 13.4895 30.5808 13.4039 30.4848 13.2031C30.388 13.0023 30.4736 12.7607 30.6744 12.6639C31.1096 12.4551 31.6368 12.4471 32.12 12.6407C32.6032 12.8343 32.9784 13.2047 33.1488 13.6567C33.2272 13.8655 33.1224 14.0983 32.9136 14.1775C32.8664 14.1951 32.8176 14.2039 32.7704 14.2039Z" fill="#1B1464"/>
<path d="M27.5768 30.2547C26.5552 30.2547 25.5328 29.9659 24.692 29.3923C24.508 29.2667 24.46 29.0155 24.5864 28.8307C24.712 28.6467 24.9632 28.5987 25.148 28.7243C26.508 29.6523 28.436 29.6947 29.836 28.8259C30.0256 28.7083 30.2744 28.7667 30.392 28.9563C30.5096 29.1459 30.4512 29.3947 30.2616 29.5123C29.4632 30.0083 28.52 30.2547 27.5768 30.2547Z" fill="#1B1464"/>
<path d="M23.02 35.4361C22.9952 35.4361 22.9704 35.4337 22.9448 35.4289C19.8528 34.8473 16.7504 32.9585 14.2104 30.1106C14.0616 29.9442 14.0768 29.689 14.2432 29.5402C14.4096 29.3914 14.6648 29.4066 14.8136 29.573C17.236 32.2882 20.1768 34.0865 23.0944 34.6345C23.3136 34.6761 23.4576 34.8865 23.4168 35.1057C23.38 35.3009 23.2104 35.4361 23.02 35.4361Z" fill="#1B1464"/>
<path d="M9.9104 23.3141C9.7032 23.3141 9.5264 23.1557 9.5088 22.9453C9.4496 22.2605 9.7168 21.8493 9.952 21.6245C10.38 21.2157 11.0048 21.1085 11.4584 21.0917C11.3904 20.9373 11.2912 20.8085 11.1592 20.7037C10.5512 20.2182 9.4672 20.3702 9.4568 20.3718C9.2368 20.4038 9.0312 20.2518 8.9984 20.0318C8.9656 19.8118 9.1168 19.6062 9.3368 19.5726C9.3952 19.5638 10.7744 19.3646 11.6608 20.0694C12.0856 20.407 12.3248 20.8829 12.3704 21.4829C12.38 21.6045 12.3336 21.7237 12.2456 21.8077C12.1568 21.8917 12.0352 21.9301 11.9144 21.9149C11.6456 21.8805 10.868 21.8653 10.5096 22.2093C10.352 22.3605 10.288 22.5781 10.3144 22.8749C10.3336 23.0973 10.1696 23.2933 9.9472 23.3125C9.9344 23.3133 9.9224 23.3141 9.9104 23.3141Z" fill="#EAAA7F"/>
</g>
<rect x="1" y="1" width="38" height="38" rx="19" stroke="white" stroke-width="2"/>
<defs>
<clipPath id="clip0_392_3944">
<rect width="40" height="40" rx="20" fill="white"/>
</clipPath>
</defs>
</svg>
