<svg width="100" height="100" viewBox="0 0 100 100" fill="none" xmlns="http://www.w3.org/2000/svg">
<g clip-path="url(#clip0_894_16335)">
<path d="M100 0H0V100H100V0Z" fill="#797EF3"/>
<path d="M61.9818 100H25.2578C26.1478 96.738 26.8698 93.848 27.0038 93.242C28.1738 87.88 28.9138 82.44 29.2098 76.982C29.3638 74.152 29.3998 71.316 29.3158 68.484C29.2578 66.522 28.3638 63.386 29.2538 61.516C30.9578 57.93 38.8798 62.14 42.3978 62.598C48.4398 63.386 54.5838 63.016 60.6458 62.648C59.7238 75.098 60.1758 87.63 61.9818 100Z" fill="#797EF3"/>
<path d="M87.5298 55.978C88.0958 58.54 89.1838 61.024 89.2038 63.65C88.6598 63.782 88.1538 63.348 87.7798 62.932C83.8258 58.526 82.5698 52.376 81.7398 46.514C81.2278 42.894 79.9138 36.882 81.6298 33.454C82.5038 31.708 85.6678 29.678 87.4758 31.358C89.6138 33.348 87.8898 40.364 87.6058 42.918C87.1238 47.25 86.5758 51.666 87.5298 55.978Z" fill="#444DF2"/>
<path d="M56.3441 6.68798C54.6581 5.72998 52.9081 4.88398 51.0941 4.17198C43.3481 1.13598 34.2501 0.827976 26.9141 4.75798C20.4601 8.21598 15.9401 14.614 13.5061 21.52C11.0721 28.426 10.5361 35.852 10.4981 43.172C10.4501 52.072 11.1081 60.966 12.2041 69.796C12.9041 75.444 14.6521 89.964 22.2101 90.264C31.4881 90.63 40.8001 90.17 49.9981 88.898C57.8321 87.816 70.7401 93.78 77.0001 88.4C80.7381 85.186 79.3741 73.636 80.9781 68.974C82.9281 63.31 84.3821 57.42 84.5561 51.432C84.7861 43.538 82.7321 35.588 78.7061 28.794C76.5641 25.18 73.8901 21.904 71.0381 18.82C66.7121 14.144 61.8581 9.81998 56.3441 6.68798Z" fill="#444DF2"/>
<path d="M61.9818 100H25.2578C26.1478 96.738 26.8698 93.848 27.0038 93.242C28.1738 87.88 28.9138 82.44 29.2098 76.982C29.3638 74.152 29.3998 71.316 29.3158 68.484C29.2578 66.522 28.3638 63.386 29.2538 61.516C30.9578 57.93 38.8798 62.14 42.3978 62.598C48.4398 63.386 54.5838 63.016 60.6458 62.648C59.7238 75.098 60.1758 87.63 61.9818 100Z" fill="#E8AE8E"/>
<path d="M29.7458 74.838C35.8578 81.402 44.2738 85.564 53.3078 87.896C61.9078 90.116 72.0338 90.378 78.6178 84.416C84.1498 79.408 85.6578 71.392 86.2258 63.95C86.9058 55.034 86.6898 46.074 86.2998 37.142C86.1298 33.258 85.9238 29.348 84.9918 25.576C83.5818 19.872 80.0598 12.292 74.4838 9.76002C67.7478 6.70202 59.6778 5.89602 52.3898 6.72002C47.1158 7.31602 41.7498 7.94802 36.9018 10.102C32.5458 12.038 26.8998 14.508 24.5738 18.83C21.6238 24.31 19.9458 30.646 19.2318 36.802C18.1478 46.138 19.4138 55.774 23.0438 64.454C24.7058 68.44 26.9918 71.882 29.7458 74.838Z" fill="#F4C19F"/>
<path d="M24.6162 38.39C23.3382 36.88 21.5522 35.874 19.1142 35.818C15.5322 35.736 12.1022 38.204 10.8062 41.546C8.72023 46.928 12.2082 53.496 16.9102 56.272C21.0862 58.736 25.9882 57.3 27.2062 52.426C27.7462 50.264 27.5342 47.996 27.3162 45.778C27.0562 43.106 26.2562 40.33 24.6162 38.39Z" fill="#F4C19F"/>
<path d="M16.7664 51.774C16.2024 51.774 15.7224 51.3421 15.6724 50.7701C15.5104 48.9061 16.2404 47.786 16.8804 47.174C18.0464 46.06 19.7484 45.77 20.9824 45.724C20.7964 45.302 20.5244 44.95 20.1624 44.662C18.5184 43.354 15.5624 43.758 15.5324 43.762C14.9324 43.854 14.3704 43.44 14.2804 42.84C14.1884 42.24 14.6024 41.6781 15.2024 41.5881C15.3604 41.5641 19.1164 41.022 21.5304 42.94C22.6864 43.86 23.3384 45.156 23.4644 46.79C23.4904 47.12 23.3644 47.446 23.1244 47.674C22.8824 47.902 22.5524 48.008 22.2224 47.966C21.4904 47.872 19.3724 47.832 18.3964 48.768C17.9684 49.18 17.7944 49.772 17.8644 50.58C17.9164 51.186 17.4684 51.718 16.8644 51.772C16.8304 51.772 16.7984 51.774 16.7664 51.774Z" fill="#EAAA7F"/>
<path d="M42.6882 33.332C42.6822 33.34 42.6782 33.348 42.6722 33.356C42.0122 34.322 39.6782 34.226 38.6702 34.354C37.8322 34.46 25.9482 35.512 25.8922 34.954C26.3462 39.584 26.8002 44.216 27.2542 48.846C27.8302 54.73 28.3202 61.05 25.3842 66.182C26.4582 58.356 25.0502 50.208 21.4122 43.196C20.2542 40.962 18.8562 38.79 18.3642 36.322C17.9422 34.198 18.2242 31.998 18.6722 29.88C19.7922 24.604 21.9542 19.552 24.9982 15.1C30.5882 6.92804 40.7322 2.75604 50.3622 2.07204C54.6422 1.76804 58.9462 1.81204 63.2182 2.20404C69.3382 2.76604 76.3082 4.75804 80.3482 9.69604C82.7262 12.604 84.2482 16.1 85.7402 19.548C86.0802 20.334 90.8122 34.812 89.6142 34.55C87.1782 34.02 84.7442 33.49 82.3082 32.96C79.6942 32.392 77.0782 31.822 74.4262 31.472C69.0082 30.758 63.5302 30.978 58.1022 31.454C56.6802 31.578 47.8142 33.604 47.1062 31.562C45.9342 28.182 44.7602 24.802 43.5882 21.422C43.3962 20.87 42.5902 20.282 42.4042 20.836C42.4082 23.158 43.8202 31.582 42.6882 33.332Z" fill="#444DF2"/>
<path d="M63.266 62.71C62.66 62.71 62.168 62.22 62.166 61.614C62.164 61.006 62.654 60.512 63.26 60.51C63.332 60.51 70.36 60.422 70.76 56.526C70.918 54.978 70.454 54.44 69.612 53.466C68.228 51.866 66.334 49.674 66.46 42.578C66.47 41.978 66.96 41.498 67.56 41.498C67.566 41.498 67.574 41.498 67.58 41.498C68.188 41.508 68.672 42.01 68.66 42.618C68.548 48.874 70.06 50.622 71.276 52.028C72.224 53.124 73.204 54.26 72.948 56.752C72.346 62.608 63.64 62.71 63.27 62.712C63.27 62.71 63.268 62.71 63.266 62.71Z" fill="#1B1464"/>
<path d="M54.4322 52.0852C56.036 51.9799 57.1926 49.7081 57.0155 47.0109C56.8385 44.3137 55.3949 42.2125 53.7911 42.3178C52.1873 42.423 51.0307 44.6949 51.2078 47.3921C51.3848 50.0893 52.8284 52.1905 54.4322 52.0852Z" fill="#1B1464"/>
<path d="M76.6534 51.461C78.2572 51.3557 79.4138 49.0839 79.2367 46.3867C79.0597 43.6895 77.6161 41.5883 76.0123 41.6936C74.4085 41.7988 73.2519 44.0707 73.429 46.7679C73.606 49.4651 75.0496 51.5663 76.6534 51.461Z" fill="#1B1464"/>
<path d="M82.128 41.202C81.902 41.202 81.676 41.134 81.48 40.99C76.678 37.48 72.36 38.572 72.178 38.62C71.592 38.776 70.99 38.43 70.832 37.844C70.674 37.26 71.016 36.658 71.598 36.496C71.82 36.436 77.082 35.05 82.778 39.212C83.268 39.57 83.376 40.258 83.018 40.75C82.802 41.046 82.468 41.202 82.128 41.202Z" fill="#1B1464"/>
<path d="M43.084 42.396C42.912 42.396 42.736 42.356 42.572 42.268C42.034 41.984 41.828 41.32 42.112 40.782C42.222 40.574 44.916 35.716 56.33 35.716C56.43 35.716 56.53 35.716 56.632 35.718C57.24 35.722 57.728 36.218 57.724 36.826C57.72 37.43 57.228 37.918 56.624 37.918C56.622 37.918 56.618 37.918 56.616 37.918C46.44 37.844 44.078 41.768 44.058 41.808C43.862 42.182 43.48 42.396 43.084 42.396Z" fill="#1B1464"/>
<path d="M61.4359 72.042C52.7299 72.042 46.9379 64.992 46.6779 64.672C46.2959 64.2 46.3699 63.506 46.8439 63.126C47.3159 62.744 48.0079 62.818 48.3899 63.292C48.4799 63.402 54.5899 70.78 63.1339 69.74C63.7379 69.668 64.2859 70.096 64.3579 70.7C64.4319 71.302 64.0019 71.852 63.3979 71.924C62.7299 72.004 62.0739 72.042 61.4359 72.042Z" fill="#1B1464"/>
<path d="M60.1621 90.2C47.3401 90.2 34.2481 80.394 33.6981 79.976C33.2141 79.61 33.1181 78.92 33.4861 78.436C33.8521 77.952 34.5421 77.856 35.0281 78.222C35.1581 78.32 48.0881 87.998 60.1641 87.998C60.7721 87.998 61.2641 88.49 61.2641 89.098C61.2641 89.706 60.7701 90.2 60.1621 90.2Z" fill="#1B1464"/>
</g>
<defs>
<clipPath id="clip0_894_16335">
<rect width="100" height="100" rx="50" fill="white"/>
</clipPath>
</defs>
</svg>
